<mxfile host="Electron" modified="2024-07-27T14:56:33.550Z" agent="Mozilla/5.0 (X11; Linux x86_64) AppleWebKit/537.36 (KHTML, like Gecko) draw.io/24.6.4 Chrome/124.0.6367.243 Electron/30.2.0 Safari/537.36" etag="LvBlfgCtvJFNO7ZWGC9P" version="24.6.4" type="device">
  <diagram name="Page-1" id="hMjKhqMPRsMkv0U9E1n5">
    <mxGraphModel dx="1430" dy="417" grid="1" gridSize="10" guides="1" tooltips="1" connect="1" arrows="1" fold="1" page="0" pageScale="1" pageWidth="850" pageHeight="1100" math="0" shadow="0">
      <root>
        <mxCell id="0" />
        <mxCell id="1" parent="0" />
        <mxCell id="7_JJzmUGlgxtBGRZnW0S-1" value="" style="rounded=0;whiteSpace=wrap;html=1;" vertex="1" parent="1">
          <mxGeometry x="200" y="520" width="200" height="80" as="geometry" />
        </mxCell>
      </root>
    </mxGraphModel>
  </diagram>
</mxfile>
